<svg width="14" height="19" viewBox="0 0 14 19" fill="none" xmlns="http://www.w3.org/2000/svg">
<path d="M7 11.5C6.30133 11.5 5.71 11.258 5.226 10.774C4.742 10.29 4.5 9.69867 4.5 9V3C4.5 2.30133 4.742 1.71 5.226 1.226C5.71 0.741999 6.30133 0.5 7 0.5C7.69867 0.5 8.29 0.741999 8.774 1.226C9.258 1.71 9.5 2.30133 9.5 3V9C9.5 9.69867 9.258 10.29 8.774 10.774C8.29 11.258 7.69867 11.5 7 11.5ZM6.25 18.75V15.4538C4.6 15.2653 3.22917 14.5576 2.1375 13.3307C1.04583 12.1037 0.5 10.6602 0.5 9H2C2 10.3833 2.4875 11.5625 3.4625 12.5375C4.4375 13.5125 5.61667 14 7 14C8.38333 14 9.5625 13.5125 10.5375 12.5375C11.5125 11.5625 12 10.3833 12 9H13.5C13.5 10.6602 12.9542 12.1037 11.8625 13.3307C10.7708 14.5576 9.4 15.2653 7.75 15.4538V18.75H6.25ZM7 10C7.28333 10 7.52083 9.90417 7.7125 9.7125C7.90417 9.52083 8 9.28333 8 9V3C8 2.71667 7.90417 2.47917 7.7125 2.2875C7.52083 2.09583 7.28333 2 7 2C6.71667 2 6.47917 2.09583 6.2875 2.2875C6.09583 2.47917 6 2.71667 6 3V9C6 9.28333 6.09583 9.52083 6.2875 9.7125C6.47917 9.90417 6.71667 10 7 10Z" fill="white"/>
</svg>
