<svg width="26" height="26" viewBox="0 0 26 26" fill="none" xmlns="http://www.w3.org/2000/svg">
<path d="M1 12.9848C1 12.9848 5.60537 12.8591 7.47708 10.9873C9.34879 9.11562 9.47454 4.51026 9.47454 4.51026C9.47454 4.51026 9.6003 9.11562 11.472 10.9873C13.3437 12.859 17.9491 12.9848 17.9491 12.9848C17.9491 12.9848 13.3437 13.1106 11.472 14.9823C9.6003 16.854 9.47454 21.4593 9.47454 21.4593C9.47454 21.4593 9.34879 16.854 7.47708 14.9823C5.60537 13.1106 1 12.9848 1 12.9848Z" fill="#B4B3B4" stroke="#B4B3B4"/>
<path d="M15.467 4.08691C15.467 4.08691 17.1446 4.04111 17.8265 3.35929C18.5083 2.67748 18.5541 0.999884 18.5541 0.999884C18.5541 0.999884 18.5999 2.67748 19.2817 3.35929C19.9635 4.0411 21.6411 4.08691 21.6411 4.08691C21.6411 4.08691 19.9635 4.13272 19.2817 4.81453C18.5999 5.49635 18.5541 7.17394 18.5541 7.17394C18.5541 7.17394 18.5083 5.49635 17.8265 4.81453C17.1446 4.13272 15.467 4.08691 15.467 4.08691Z" fill="#B4B3B4" stroke="#B4B3B4"/>
<path d="M15.467 19.9911C15.467 19.9911 18.189 19.9168 19.2953 18.8105C20.4015 17.7042 20.4759 14.9823 20.4759 14.9823C20.4759 14.9823 20.5502 17.7042 21.6564 18.8105C22.7627 19.9168 25.4847 19.9911 25.4847 19.9911C25.4847 19.9911 22.7627 20.0654 21.6564 21.1717C20.5502 22.2779 20.4759 24.9999 20.4759 24.9999C20.4759 24.9999 20.4015 22.2779 19.2953 21.1717C18.189 20.0654 15.467 19.9911 15.467 19.9911Z" fill="#B4B3B4" stroke="#B4B3B4"/>
</svg>
